<svg xmlns="http://www.w3.org/2000/svg" xmlns:xlink="http://www.w3.org/1999/xlink" fill="none" version="1.1" width="32" height="32" viewBox="0 0 32 32"><g style="mix-blend-mode:passthrough"><g><g style="mix-blend-mode:passthrough"></g><g style="mix-blend-mode:passthrough"><path d="M4.09919,7.9793199999999995L17.0992,21.979300000000002L16,23L14.9008,21.979300000000002L27.9008,7.9793199999999995Q27.951,7.92532,28.0061,7.8765Q28.0613,7.8276699999999995,28.1211,7.78449Q28.1808,7.74131,28.2444,7.7042Q28.3081,7.66708,28.3751,7.63638Q28.4421,7.6056799999999996,28.5117,7.58169Q28.5814,7.5577000000000005,28.6531,7.54066Q28.7248,7.52362,28.7978,7.51369Q28.8708,7.50376,28.9445,7.50103Q29.0181,7.4983,29.0917,7.5028Q29.1652,7.50731,29.238,7.519Q29.3107,7.53069,29.382,7.54946Q29.4533,7.56822,29.5223,7.59388Q29.5914,7.61955,29.6576,7.65185Q29.7239,7.68416,29.7866,7.72281Q29.8494,7.76145,29.908,7.80606Q29.9667,7.85067,30.0207,7.90081Q30.0747,7.95095,30.1235,8.006146Q30.1723,8.061341,30.2155,8.121055Q30.2587,8.180769,30.2958,8.244427Q30.3329,8.308086,30.3636,8.375077Q30.3943,8.442067,30.4183,8.511744Q30.4423,8.581422,30.4593,8.653114Q30.4764,8.724807,30.4863,8.797825Q30.4962,8.870843,30.499,8.9444825Q30.5017,9.0181223,30.4972,9.0916748Q30.4927,9.165227,30.481,9.237984Q30.4693,9.310741,30.4505,9.382002Q30.4318,9.453262,30.4061,9.52234Q30.3805,9.591418,30.3481,9.657649Q30.3158,9.723879,30.2772,9.786623Q30.2385,9.849368,30.1939,9.908022Q30.1493,9.966677,30.0992,10.02068L16,25.2044L1.90081,10.02068Q1.85067,9.966677,1.80606,9.908022Q1.76145,9.849368,1.72281,9.786623Q1.68416,9.723879,1.65185,9.657649Q1.61955,9.591418,1.59388,9.52234Q1.56822,9.453262,1.54946,9.382002Q1.53069,9.310741,1.519,9.237984Q1.50731,9.165227,1.5028,9.0916748Q1.4983,9.0181223,1.50103,8.9444825Q1.50376,8.870843,1.51369,8.797825Q1.52362,8.724807,1.54066,8.653114Q1.5577,8.581422,1.58169,8.511744Q1.60568,8.442067,1.63638,8.375077Q1.66708,8.308086,1.7042,8.244427Q1.74131,8.180769,1.78449,8.121055Q1.82767,8.061341,1.8765,8.006146Q1.92532,7.95095,1.97932,7.90081Q2.033323,7.85067,2.091978,7.80606Q2.150632,7.76145,2.213377,7.72281Q2.276121,7.68416,2.342351,7.65185Q2.408582,7.61955,2.47766,7.59388Q2.546738,7.56822,2.617998,7.54946Q2.689259,7.53069,2.762016,7.519Q2.834773,7.50731,2.9083252,7.5028Q2.9818777,7.4983,3.0555175,7.50103Q3.129157,7.50376,3.202175,7.51369Q3.275193,7.52362,3.346886,7.54066Q3.418578,7.5577000000000005,3.488256,7.58169Q3.5579330000000002,7.6056799999999996,3.624923,7.63638Q3.691914,7.66708,3.755573,7.7042Q3.8192310000000003,7.74131,3.878945,7.78449Q3.938659,7.8276699999999995,3.993854,7.8765Q4.04905,7.92532,4.09919,7.9793199999999995ZM4.5,9Q4.5,9.0736903,4.49278,9.147026Q4.48555,9.220361,4.47118,9.292635Q4.4568,9.36491,4.43541,9.435427Q4.41402,9.505944,4.38582,9.574025Q4.35762,9.642106,4.32288,9.707095Q4.28814,9.772084,4.2472,9.833355Q4.20626,9.894627,4.1595200000000006,9.95159Q4.11277,10.00855,4.06066,10.06066Q4.00855,10.11277,3.95159,10.15952Q3.894627,10.20626,3.833355,10.2472Q3.772084,10.28814,3.707095,10.32288Q3.642106,10.35762,3.574025,10.38582Q3.505944,10.41402,3.435427,10.435410000000001Q3.36491,10.4568,3.2926349999999998,10.47118Q3.220361,10.48555,3.147026,10.49278Q3.0736903,10.5,3,10.5Q2.9263097,10.5,2.852974,10.49278Q2.779639,10.48555,2.7073650000000002,10.47118Q2.63509,10.4568,2.564573,10.435410000000001Q2.494056,10.41402,2.425975,10.38582Q2.357894,10.35762,2.292905,10.32288Q2.227916,10.28814,2.166645,10.2472Q2.105373,10.20626,2.04841,10.15952Q1.99145,10.11277,1.93934,10.06066Q1.88723,10.00855,1.84048,9.95159Q1.79374,9.894627,1.7528,9.833355Q1.71186,9.772084,1.67712,9.707095Q1.64238,9.642106,1.61418,9.574025Q1.58598,9.505944,1.56459,9.435427Q1.5432,9.36491,1.52882,9.292635Q1.51445,9.220361,1.50722,9.147026Q1.5,9.0736903,1.5,9Q1.5,8.9263097,1.50722,8.852974Q1.51445,8.779639,1.52882,8.707365Q1.5432,8.63509,1.56459,8.564573Q1.58598,8.494056,1.61418,8.425975Q1.64238,8.357894,1.67712,8.292905Q1.71186,8.227916,1.7528,8.166645Q1.79374,8.105373,1.84048,8.04841Q1.88723,7.99145,1.93934,7.93934Q1.99145,7.88723,2.04841,7.8404799999999994Q2.105373,7.79374,2.166645,7.7528Q2.227916,7.71186,2.292905,7.67712Q2.357894,7.64238,2.425975,7.61418Q2.494056,7.58598,2.564573,7.56459Q2.63509,7.5432,2.7073650000000002,7.52882Q2.779639,7.51445,2.852974,7.50722Q2.9263097,7.5,3,7.5Q3.0736903,7.5,3.147026,7.50722Q3.220361,7.51445,3.2926349999999998,7.52882Q3.36491,7.5432,3.435427,7.56459Q3.505944,7.58598,3.574025,7.61418Q3.642106,7.64238,3.707095,7.67712Q3.772084,7.71186,3.833355,7.7528Q3.894627,7.79374,3.95159,7.8404799999999994Q4.00855,7.88723,4.06066,7.93934Q4.11277,7.99145,4.1595200000000006,8.04841Q4.20626,8.105373,4.2472,8.166645Q4.28814,8.227916,4.32288,8.292905Q4.35762,8.357894,4.38582,8.425975Q4.41402,8.494056,4.43541,8.564573Q4.4568,8.63509,4.47118,8.707365Q4.48555,8.779639,4.49278,8.852974Q4.5,8.9263097,4.5,9ZM30.5,9Q30.5,9.0736903,30.4928,9.147026Q30.4856,9.220361,30.4712,9.292635Q30.4568,9.36491,30.4354,9.435427Q30.414,9.505944,30.3858,9.574025Q30.3576,9.642106,30.3229,9.707095Q30.2881,9.772084,30.2472,9.833355Q30.2063,9.894627,30.1595,9.95159Q30.1128,10.00855,30.0607,10.06066Q30.0086,10.11277,29.9516,10.15952Q29.8946,10.20626,29.8334,10.2472Q29.7721,10.28814,29.7071,10.32288Q29.6421,10.35762,29.574,10.38582Q29.5059,10.41402,29.4354,10.435410000000001Q29.3649,10.4568,29.2926,10.47118Q29.2204,10.48555,29.147,10.49278Q29.0737,10.5,29,10.5Q28.9263,10.5,28.853,10.49278Q28.7796,10.48555,28.7074,10.47118Q28.6351,10.4568,28.5646,10.435410000000001Q28.4941,10.41402,28.426,10.38582Q28.3579,10.35762,28.2929,10.32288Q28.2279,10.28814,28.1666,10.2472Q28.1054,10.20626,28.0484,10.15952Q27.9914,10.11277,27.9393,10.06066Q27.8872,10.00855,27.8405,9.95159Q27.7937,9.894627,27.7528,9.833355Q27.7119,9.772084,27.6771,9.707095Q27.6424,9.642106,27.6142,9.574025Q27.586,9.505944,27.5646,9.435427Q27.5432,9.36491,27.5288,9.292635Q27.5144,9.220361,27.5072,9.147026Q27.5,9.0736903,27.5,9Q27.5,8.9263097,27.5072,8.852974Q27.5144,8.779639,27.5288,8.707365Q27.5432,8.63509,27.5646,8.564573Q27.586,8.494056,27.6142,8.425975Q27.6424,8.357894,27.6771,8.292905Q27.7119,8.227916,27.7528,8.166645Q27.7937,8.105373,27.8405,8.04841Q27.8872,7.99145,27.9393,7.93934Q27.9914,7.88723,28.0484,7.8404799999999994Q28.1054,7.79374,28.1666,7.7528Q28.2279,7.71186,28.2929,7.67712Q28.3579,7.64238,28.426,7.61418Q28.4941,7.58598,28.5646,7.56459Q28.6351,7.5432,28.7074,7.52882Q28.7796,7.51445,28.853,7.50722Q28.9263,7.5,29,7.5Q29.0737,7.5,29.147,7.50722Q29.2204,7.51445,29.2926,7.52882Q29.3649,7.5432,29.4354,7.56459Q29.5059,7.58598,29.574,7.61418Q29.6421,7.64238,29.7071,7.67712Q29.7721,7.71186,29.8334,7.7528Q29.8946,7.79374,29.9516,7.8404799999999994Q30.0086,7.88723,30.0607,7.93934Q30.1128,7.99145,30.1595,8.04841Q30.2063,8.105373,30.2472,8.166645Q30.2881,8.227916,30.3229,8.292905Q30.3576,8.357894,30.3858,8.425975Q30.414,8.494056,30.4354,8.564573Q30.4568,8.63509,30.4712,8.707365Q30.4856,8.779639,30.4928,8.852974Q30.5,8.9263097,30.5,9Z" fill="#FFFFFF" fill-opacity="1"/><path d="M4.09919,7.9793199999999995L17.0992,21.979300000000002L16,23L14.9008,21.979300000000002L27.9008,7.9793199999999995Q27.951,7.92532,28.0061,7.8765Q28.0613,7.8276699999999995,28.1211,7.78449Q28.1808,7.74131,28.2444,7.7042Q28.3081,7.66708,28.3751,7.63638Q28.4421,7.6056799999999996,28.5117,7.58169Q28.5814,7.5577000000000005,28.6531,7.54066Q28.7248,7.52362,28.7978,7.51369Q28.8708,7.50376,28.9445,7.50103Q29.0181,7.4983,29.0917,7.5028Q29.1652,7.50731,29.238,7.519Q29.3107,7.53069,29.382,7.54946Q29.4533,7.56822,29.5223,7.59388Q29.5914,7.61955,29.6576,7.65185Q29.7239,7.68416,29.7866,7.72281Q29.8494,7.76145,29.908,7.80606Q29.9667,7.85067,30.0207,7.90081Q30.0747,7.95095,30.1235,8.006146Q30.1723,8.061341,30.2155,8.121055Q30.2587,8.180769,30.2958,8.244427Q30.3329,8.308086,30.3636,8.375077Q30.3943,8.442067,30.4183,8.511744Q30.4423,8.581422,30.4593,8.653114Q30.4764,8.724807,30.4863,8.797825Q30.4962,8.870843,30.499,8.9444825Q30.5017,9.0181223,30.4972,9.0916748Q30.4927,9.165227,30.481,9.237984Q30.4693,9.310741,30.4505,9.382002Q30.4318,9.453262,30.4061,9.52234Q30.3805,9.591418,30.3481,9.657649Q30.3158,9.723879,30.2772,9.786623Q30.2385,9.849368,30.1939,9.908022Q30.1493,9.966677,30.0992,10.02068L16,25.2044L1.90081,10.02068Q1.85067,9.966677,1.80606,9.908022Q1.76145,9.849368,1.72281,9.786623Q1.68416,9.723879,1.65185,9.657649Q1.61955,9.591418,1.59388,9.52234Q1.56822,9.453262,1.54946,9.382002Q1.53069,9.310741,1.519,9.237984Q1.50731,9.165227,1.5028,9.0916748Q1.4983,9.0181223,1.50103,8.9444825Q1.50376,8.870843,1.51369,8.797825Q1.52362,8.724807,1.54066,8.653114Q1.5577,8.581422,1.58169,8.511744Q1.60568,8.442067,1.63638,8.375077Q1.66708,8.308086,1.7042,8.244427Q1.74131,8.180769,1.78449,8.121055Q1.82767,8.061341,1.8765,8.006146Q1.92532,7.95095,1.97932,7.90081Q2.033323,7.85067,2.091978,7.80606Q2.150632,7.76145,2.213377,7.72281Q2.276121,7.68416,2.342351,7.65185Q2.408582,7.61955,2.47766,7.59388Q2.546738,7.56822,2.617998,7.54946Q2.689259,7.53069,2.762016,7.519Q2.834773,7.50731,2.9083252,7.5028Q2.9818777,7.4983,3.0555175,7.50103Q3.129157,7.50376,3.202175,7.51369Q3.275193,7.52362,3.346886,7.54066Q3.418578,7.5577000000000005,3.488256,7.58169Q3.5579330000000002,7.6056799999999996,3.624923,7.63638Q3.691914,7.66708,3.755573,7.7042Q3.8192310000000003,7.74131,3.878945,7.78449Q3.938659,7.8276699999999995,3.993854,7.8765Q4.04905,7.92532,4.09919,7.9793199999999995ZM4.5,9Q4.5,9.0736903,4.49278,9.147026Q4.48555,9.220361,4.47118,9.292635Q4.4568,9.36491,4.43541,9.435427Q4.41402,9.505944,4.38582,9.574025Q4.35762,9.642106,4.32288,9.707095Q4.28814,9.772084,4.2472,9.833355Q4.20626,9.894627,4.1595200000000006,9.95159Q4.11277,10.00855,4.06066,10.06066Q4.00855,10.11277,3.95159,10.15952Q3.894627,10.20626,3.833355,10.2472Q3.772084,10.28814,3.707095,10.32288Q3.642106,10.35762,3.574025,10.38582Q3.505944,10.41402,3.435427,10.435410000000001Q3.36491,10.4568,3.2926349999999998,10.47118Q3.220361,10.48555,3.147026,10.49278Q3.0736903,10.5,3,10.5Q2.9263097,10.5,2.852974,10.49278Q2.779639,10.48555,2.7073650000000002,10.47118Q2.63509,10.4568,2.564573,10.435410000000001Q2.494056,10.41402,2.425975,10.38582Q2.357894,10.35762,2.292905,10.32288Q2.227916,10.28814,2.166645,10.2472Q2.105373,10.20626,2.04841,10.15952Q1.99145,10.11277,1.93934,10.06066Q1.88723,10.00855,1.84048,9.95159Q1.79374,9.894627,1.7528,9.833355Q1.71186,9.772084,1.67712,9.707095Q1.64238,9.642106,1.61418,9.574025Q1.58598,9.505944,1.56459,9.435427Q1.5432,9.36491,1.52882,9.292635Q1.51445,9.220361,1.50722,9.147026Q1.5,9.0736903,1.5,9Q1.5,8.9263097,1.50722,8.852974Q1.51445,8.779639,1.52882,8.707365Q1.5432,8.63509,1.56459,8.564573Q1.58598,8.494056,1.61418,8.425975Q1.64238,8.357894,1.67712,8.292905Q1.71186,8.227916,1.7528,8.166645Q1.79374,8.105373,1.84048,8.04841Q1.88723,7.99145,1.93934,7.93934Q1.99145,7.88723,2.04841,7.8404799999999994Q2.105373,7.79374,2.166645,7.7528Q2.227916,7.71186,2.292905,7.67712Q2.357894,7.64238,2.425975,7.61418Q2.494056,7.58598,2.564573,7.56459Q2.63509,7.5432,2.7073650000000002,7.52882Q2.779639,7.51445,2.852974,7.50722Q2.9263097,7.5,3,7.5Q3.0736903,7.5,3.147026,7.50722Q3.220361,7.51445,3.2926349999999998,7.52882Q3.36491,7.5432,3.435427,7.56459Q3.505944,7.58598,3.574025,7.61418Q3.642106,7.64238,3.707095,7.67712Q3.772084,7.71186,3.833355,7.7528Q3.894627,7.79374,3.95159,7.8404799999999994Q4.00855,7.88723,4.06066,7.93934Q4.11277,7.99145,4.1595200000000006,8.04841Q4.20626,8.105373,4.2472,8.166645Q4.28814,8.227916,4.32288,8.292905Q4.35762,8.357894,4.38582,8.425975Q4.41402,8.494056,4.43541,8.564573Q4.4568,8.63509,4.47118,8.707365Q4.48555,8.779639,4.49278,8.852974Q4.5,8.9263097,4.5,9ZM30.5,9Q30.5,9.0736903,30.4928,9.147026Q30.4856,9.220361,30.4712,9.292635Q30.4568,9.36491,30.4354,9.435427Q30.414,9.505944,30.3858,9.574025Q30.3576,9.642106,30.3229,9.707095Q30.2881,9.772084,30.2472,9.833355Q30.2063,9.894627,30.1595,9.95159Q30.1128,10.00855,30.0607,10.06066Q30.0086,10.11277,29.9516,10.15952Q29.8946,10.20626,29.8334,10.2472Q29.7721,10.28814,29.7071,10.32288Q29.6421,10.35762,29.574,10.38582Q29.5059,10.41402,29.4354,10.435410000000001Q29.3649,10.4568,29.2926,10.47118Q29.2204,10.48555,29.147,10.49278Q29.0737,10.5,29,10.5Q28.9263,10.5,28.853,10.49278Q28.7796,10.48555,28.7074,10.47118Q28.6351,10.4568,28.5646,10.435410000000001Q28.4941,10.41402,28.426,10.38582Q28.3579,10.35762,28.2929,10.32288Q28.2279,10.28814,28.1666,10.2472Q28.1054,10.20626,28.0484,10.15952Q27.9914,10.11277,27.9393,10.06066Q27.8872,10.00855,27.8405,9.95159Q27.7937,9.894627,27.7528,9.833355Q27.7119,9.772084,27.6771,9.707095Q27.6424,9.642106,27.6142,9.574025Q27.586,9.505944,27.5646,9.435427Q27.5432,9.36491,27.5288,9.292635Q27.5144,9.220361,27.5072,9.147026Q27.5,9.0736903,27.5,9Q27.5,8.9263097,27.5072,8.852974Q27.5144,8.779639,27.5288,8.707365Q27.5432,8.63509,27.5646,8.564573Q27.586,8.494056,27.6142,8.425975Q27.6424,8.357894,27.6771,8.292905Q27.7119,8.227916,27.7528,8.166645Q27.7937,8.105373,27.8405,8.04841Q27.8872,7.99145,27.9393,7.93934Q27.9914,7.88723,28.0484,7.8404799999999994Q28.1054,7.79374,28.1666,7.7528Q28.2279,7.71186,28.2929,7.67712Q28.3579,7.64238,28.426,7.61418Q28.4941,7.58598,28.5646,7.56459Q28.6351,7.5432,28.7074,7.52882Q28.7796,7.51445,28.853,7.50722Q28.9263,7.5,29,7.5Q29.0737,7.5,29.147,7.50722Q29.2204,7.51445,29.2926,7.52882Q29.3649,7.5432,29.4354,7.56459Q29.5059,7.58598,29.574,7.61418Q29.6421,7.64238,29.7071,7.67712Q29.7721,7.71186,29.8334,7.7528Q29.8946,7.79374,29.9516,7.8404799999999994Q30.0086,7.88723,30.0607,7.93934Q30.1128,7.99145,30.1595,8.04841Q30.2063,8.105373,30.2472,8.166645Q30.2881,8.227916,30.3229,8.292905Q30.3576,8.357894,30.3858,8.425975Q30.414,8.494056,30.4354,8.564573Q30.4568,8.63509,30.4712,8.707365Q30.4856,8.779639,30.4928,8.852974Q30.5,8.9263097,30.5,9Z" fill="#FFFFFF" fill-opacity="1"/></g></g></g></svg>