<svg width="40" height="40" viewBox="0 0 40 40" fill="none" xmlns="http://www.w3.org/2000/svg">
<mask id="mask0_10175_5790" style="mask-type:alpha" maskUnits="userSpaceOnUse" x="0" y="0" width="40" height="40">
<rect width="40" height="40" fill="#D9D9D9"/>
</mask>
<g mask="url(#mask0_10175_5790)">
<path d="M10.1646 29.4038C11.6896 28.349 13.2413 27.5194 14.8196 26.915C16.3979 26.3108 18.1247 26.0088 20 26.0088C21.8753 26.0088 23.6032 26.3108 25.1838 26.915C26.7643 27.5194 28.3171 28.349 29.8421 29.4038C31.0093 28.1524 31.9257 26.7369 32.5913 25.1575C33.2568 23.5778 33.5896 21.8586 33.5896 20C33.5896 16.2117 32.2718 12.9996 29.6363 10.3637C27.0004 7.72819 23.7883 6.41042 20 6.41042C16.2117 6.41042 12.9996 7.72819 10.3637 10.3637C7.72819 12.9996 6.41042 16.2117 6.41042 20C6.41042 21.8586 6.74417 23.5778 7.41167 25.1575C8.07944 26.7369 8.99708 28.1524 10.1646 29.4038ZM19.9933 20.705C18.5983 20.705 17.424 20.2263 16.4704 19.2688C15.5171 18.311 15.0404 17.1344 15.0404 15.7392C15.0404 14.3439 15.5193 13.1696 16.4771 12.2163C17.4349 11.2629 18.6114 10.7863 20.0067 10.7863C21.4017 10.7863 22.576 11.2651 23.5296 12.2229C24.4829 13.1807 24.9596 14.3571 24.9596 15.7521C24.9596 17.1474 24.4807 18.3217 23.5229 19.275C22.5651 20.2283 21.3886 20.705 19.9933 20.705ZM20.0129 35C17.9168 35 15.9583 34.6106 14.1375 33.8317C12.3169 33.0528 10.7283 31.9835 9.37167 30.6237C8.015 29.2643 6.94722 27.6779 6.16833 25.8646C5.38944 24.0513 5 22.0975 5 20.0033C5 17.9092 5.38944 15.9543 6.16833 14.1388C6.94722 12.3232 8.01653 10.7357 9.37625 9.37625C10.7357 8.01653 12.3221 6.94722 14.1354 6.16833C15.9488 5.38944 17.9025 5 19.9967 5C22.0908 5 24.0457 5.38944 25.8612 6.16833C27.6768 6.94722 29.2643 8.01653 30.6237 9.37625C31.9835 10.7357 33.0528 12.3235 33.8317 14.1396C34.6106 15.9557 35 17.9049 35 19.9871C35 22.0832 34.6106 24.0417 33.8317 25.8625C33.0528 27.6831 31.9835 29.2717 30.6237 30.6283C29.2643 31.985 27.6765 33.0528 25.8604 33.8317C24.0443 34.6106 22.0951 35 20.0129 35ZM20 33.5896C21.5592 33.5896 23.1047 33.3199 24.6367 32.7804C26.1689 32.241 27.5307 31.4524 28.7221 30.4146C27.5307 29.4865 26.1964 28.7551 24.7192 28.2204C23.2419 27.686 21.6689 27.4188 20 27.4188C18.3311 27.4188 16.7528 27.6807 15.265 28.2046C13.7769 28.7285 12.455 29.4651 11.2992 30.4146C12.4764 31.4524 13.8311 32.241 15.3633 32.7804C16.8953 33.3199 18.4408 33.5896 20 33.5896ZM20.0029 19.295C21.0138 19.295 21.8575 18.9557 22.5342 18.2771C23.2108 17.5985 23.5492 16.7538 23.5492 15.7429C23.5492 14.7321 23.2099 13.8883 22.5312 13.2117C21.8526 12.535 21.0079 12.1967 19.9971 12.1967C18.9862 12.1967 18.1425 12.536 17.4658 13.2146C16.7892 13.8932 16.4508 14.7379 16.4508 15.7487C16.4508 16.7596 16.7901 17.6033 17.4688 18.28C18.1474 18.9567 18.9921 19.295 20.0029 19.295Z" fill="#7F7C75"/>
</g>
</svg>
