<?xml version="1.0" encoding="UTF-8"?>
<svg width="40px" height="40px" viewBox="0 0 40 40" version="1.1" xmlns="http://www.w3.org/2000/svg" xmlns:xlink="http://www.w3.org/1999/xlink">
    <title>切片</title>
    <defs>
        <linearGradient x1="100%" y1="50%" x2="0%" y2="50%" id="linearGradient-1">
            <stop stop-color="#FFC233" offset="0%"></stop>
            <stop stop-color="#FFEB91" offset="100%"></stop>
            <stop stop-color="#FFE362" offset="100%"></stop>
        </linearGradient>
    </defs>
    <g id="版本二" stroke="none" stroke-width="1" fill="none" fill-rule="evenodd">
        <g id="管理_卡片备份-22" transform="translate(-568.000000, -1468.000000)">
            <g id="标签拦" transform="translate(0.000000, 1452.000000)">
                <g id="编组" transform="translate(568.000000, 16.000000)">
                    <rect id="矩形" x="0" y="0" width="40" height="40"></rect>
                    <path d="M14.9090909,21.8181818 C16.7165683,21.8181818 18.1818182,23.2834317 18.1818182,25.0909091 L18.1818182,30.9090909 C18.1818182,35.9298614 14.1116795,40 9.09090909,40 C4.07013864,40 6.69321891e-14,35.9298614 6.80936788e-14,30.9090909 C6.74788118e-14,25.8883205 4.07013864,21.8181818 9.09090909,21.8181818 L14.9090909,21.8181818 Z M30.9090909,21.8181818 C35.9298614,21.8181818 40,25.8883205 40,30.9090909 C40,35.9298614 35.9298614,40 30.9090909,40 C25.8883205,40 21.8181818,35.9298614 21.8181818,30.9090909 L21.8181818,25.0909091 C21.8181818,23.2834317 23.2834317,21.8181818 25.0909091,21.8181818 L30.9090909,21.8181818 Z M9.09090909,6.80936788e-14 C14.1116795,6.71713783e-14 18.1818182,4.07013864 18.1818182,9.09090909 L18.1818182,14.9090909 C18.1818182,16.7165683 16.7165683,18.1818182 14.9090909,18.1818182 L9.09090909,18.1818182 C4.07013864,18.1818182 6.87085459e-14,14.1116795 6.80936788e-14,9.09090909 C6.74788118e-14,4.07013864 4.07013864,6.90159794e-14 9.09090909,6.80936788e-14 Z M30.9090909,6.80936788e-14 C35.9298614,6.71713783e-14 40,4.07013864 40,9.09090909 C40,14.1116795 35.9298614,18.1818182 30.9090909,18.1818182 L25.0909091,18.1818182 C23.2834317,18.1818182 21.8181818,16.7165683 21.8181818,14.9090909 L21.8181818,9.09090909 C21.8181818,4.07013864 25.8883205,6.90159794e-14 30.9090909,6.80936788e-14 Z" id="形状结合" fill="url(#linearGradient-1)"></path>
                </g>
            </g>
        </g>
    </g>
</svg>