<svg xmlns="http://www.w3.org/2000/svg" xmlns:xlink="http://www.w3.org/1999/xlink" fill="none" version="1.1" width="48" height="48" viewBox="0 0 48 48"><defs><linearGradient x1="1" y1="0" x2="0" y2="1" id="master_svg0_801_6654"><stop offset="0%" stop-color="#71A7FF" stop-opacity="1"/><stop offset="100%" stop-color="#3A84FF" stop-opacity="1"/></linearGradient></defs><g style="mix-blend-mode:passthrough"><g><g style="mix-blend-mode:passthrough"></g><g style="mix-blend-mode:passthrough"><path d="M25.9846,1.13403L42.9846,10.8483C44.2309,11.5605,45,12.8859,45,14.3213L45,33.6787C45,35.1141,44.2309,36.4395,42.9846,37.1517L25.9846,46.866C24.7548,47.5687,23.2452,47.5687,22.0154,46.866L5.01544,37.1517C3.769144,36.4395,3,35.1141,3,33.6787L3,14.3213C3,12.8859,3.769144,11.5605,5.01544,10.8483L22.0154,1.13403C23.2452,0.431329,24.7548,0.431329,25.9846,1.13403" fill-rule="evenodd" fill="url(#master_svg0_801_6654)" fill-opacity="1"/></g><g style="mix-blend-mode:passthrough"><path d="M22.5,36L22.5,24Q22.5,23.9263097,22.50722,23.852974Q22.51445,23.779639,22.52882,23.707365Q22.5432,23.63509,22.56459,23.564573Q22.58598,23.494056,22.61418,23.425975Q22.64238,23.357894,22.67712,23.292905Q22.71186,23.227916,22.7528,23.166645Q22.79374,23.105373,22.84048,23.04841Q22.88723,22.99145,22.93934,22.93934Q22.99145,22.88723,23.04841,22.84048Q23.105373,22.79374,23.166645,22.7528Q23.227916,22.71186,23.292905,22.67712Q23.357894,22.64238,23.425975,22.61418Q23.494056,22.58598,23.564573,22.56459Q23.63509,22.5432,23.707365,22.52882Q23.779639,22.51445,23.852974,22.50722Q23.9263097,22.5,24,22.5Q24.0736903,22.5,24.147026,22.50722Q24.220361,22.51445,24.292635,22.52882Q24.36491,22.5432,24.435427,22.56459Q24.505944,22.58598,24.574025,22.61418Q24.642106,22.64238,24.707095,22.67712Q24.772084,22.71186,24.833355,22.7528Q24.894627,22.79374,24.95159,22.84048Q25.00855,22.88723,25.06066,22.93934Q25.11277,22.99145,25.15952,23.04841Q25.20626,23.105373,25.2472,23.166645Q25.28814,23.227916,25.32288,23.292905Q25.35762,23.357894,25.38582,23.425975Q25.41402,23.494056,25.43541,23.564573Q25.4568,23.63509,25.47118,23.707365Q25.48555,23.779639,25.49278,23.852974Q25.5,23.9263097,25.5,24L25.5,36Q25.5,36.0737,25.49278,36.147Q25.48555,36.2204,25.47118,36.2926Q25.4568,36.3649,25.43541,36.4354Q25.41402,36.5059,25.38582,36.574Q25.35762,36.6421,25.32288,36.7071Q25.28814,36.7721,25.2472,36.8334Q25.20626,36.8946,25.15952,36.9516Q25.11277,37.0086,25.06066,37.0607Q25.00855,37.1128,24.95159,37.1595Q24.894627,37.2063,24.833355,37.2472Q24.772084,37.2881,24.707095,37.322900000000004Q24.642106,37.3576,24.574025,37.3858Q24.505944,37.414,24.435427,37.4354Q24.36491,37.4568,24.292635,37.471199999999996Q24.220361,37.4856,24.147026,37.4928Q24.0736903,37.5,24,37.5Q23.9263097,37.5,23.852974,37.4928Q23.779639,37.4856,23.707365,37.471199999999996Q23.63509,37.4568,23.564573,37.4354Q23.494056,37.414,23.425975,37.3858Q23.357894,37.3576,23.292905,37.322900000000004Q23.227916,37.2881,23.166645,37.2472Q23.105373,37.2063,23.04841,37.1595Q22.99145,37.1128,22.93934,37.0607Q22.88723,37.0086,22.84048,36.9516Q22.79374,36.8946,22.7528,36.8334Q22.71186,36.7721,22.67712,36.7071Q22.64238,36.6421,22.61418,36.574Q22.58598,36.5059,22.56459,36.4354Q22.5432,36.3649,22.52882,36.2926Q22.51445,36.2204,22.50722,36.147Q22.5,36.0737,22.5,36ZM25.5,36Q25.5,36.0737,25.49278,36.147Q25.48555,36.2204,25.47118,36.2926Q25.4568,36.3649,25.43541,36.4354Q25.41402,36.5059,25.38582,36.574Q25.35762,36.6421,25.32288,36.7071Q25.28814,36.7721,25.2472,36.8334Q25.20626,36.8946,25.15952,36.9516Q25.11277,37.0086,25.06066,37.0607Q25.00855,37.1128,24.95159,37.1595Q24.894627,37.2063,24.833355,37.2472Q24.772084,37.2881,24.707095,37.322900000000004Q24.642106,37.3576,24.574025,37.3858Q24.505944,37.414,24.435427,37.4354Q24.36491,37.4568,24.292635,37.471199999999996Q24.220361,37.4856,24.147026,37.4928Q24.0736903,37.5,24,37.5Q23.9263097,37.5,23.852974,37.4928Q23.779639,37.4856,23.707365,37.471199999999996Q23.63509,37.4568,23.564573,37.4354Q23.494056,37.414,23.425975,37.3858Q23.357894,37.3576,23.292905,37.322900000000004Q23.227916,37.2881,23.166645,37.2472Q23.105373,37.2063,23.04841,37.1595Q22.99145,37.1128,22.93934,37.0607Q22.88723,37.0086,22.84048,36.9516Q22.79374,36.8946,22.7528,36.8334Q22.71186,36.7721,22.67712,36.7071Q22.64238,36.6421,22.61418,36.574Q22.58598,36.5059,22.56459,36.4354Q22.5432,36.3649,22.52882,36.2926Q22.51445,36.2204,22.50722,36.147Q22.5,36.0737,22.5,36Q22.5,35.9263,22.50722,35.853Q22.51445,35.7796,22.52882,35.7074Q22.5432,35.6351,22.56459,35.5646Q22.58598,35.4941,22.61418,35.426Q22.64238,35.3579,22.67712,35.2929Q22.71186,35.2279,22.7528,35.1666Q22.79374,35.1054,22.84048,35.0484Q22.88723,34.9914,22.93934,34.9393Q22.99145,34.8872,23.04841,34.8405Q23.105373,34.7937,23.166645,34.7528Q23.227916,34.7119,23.292905,34.677099999999996Q23.357894,34.6424,23.425975,34.6142Q23.494056,34.586,23.564573,34.5646Q23.63509,34.5432,23.707365,34.528800000000004Q23.779639,34.5144,23.852974,34.5072Q23.9263097,34.5,24,34.5Q24.0736903,34.5,24.147026,34.5072Q24.220361,34.5144,24.292635,34.528800000000004Q24.36491,34.5432,24.435427,34.5646Q24.505944,34.586,24.574025,34.6142Q24.642106,34.6424,24.707095,34.677099999999996Q24.772084,34.7119,24.833355,34.7528Q24.894627,34.7937,24.95159,34.8405Q25.00855,34.8872,25.06066,34.9393Q25.11277,34.9914,25.15952,35.0484Q25.20626,35.1054,25.2472,35.1666Q25.28814,35.2279,25.32288,35.2929Q25.35762,35.3579,25.38582,35.426Q25.41402,35.4941,25.43541,35.5646Q25.4568,35.6351,25.47118,35.7074Q25.48555,35.7796,25.49278,35.853Q25.5,35.9263,25.5,36ZM25.5,24Q25.5,24.0736903,25.49278,24.147026Q25.48555,24.220361,25.47118,24.292635Q25.4568,24.36491,25.43541,24.435427Q25.41402,24.505944,25.38582,24.574025Q25.35762,24.642106,25.32288,24.707095Q25.28814,24.772084,25.2472,24.833355Q25.20626,24.894627,25.15952,24.95159Q25.11277,25.00855,25.06066,25.06066Q25.00855,25.11277,24.95159,25.15952Q24.894627,25.20626,24.833355,25.2472Q24.772084,25.28814,24.707095,25.32288Q24.642106,25.35762,24.574025,25.38582Q24.505944,25.41402,24.435427,25.43541Q24.36491,25.4568,24.292635,25.47118Q24.220361,25.48555,24.147026,25.49278Q24.0736903,25.5,24,25.5Q23.9263097,25.5,23.852974,25.49278Q23.779639,25.48555,23.707365,25.47118Q23.63509,25.4568,23.564573,25.43541Q23.494056,25.41402,23.425975,25.38582Q23.357894,25.35762,23.292905,25.32288Q23.227916,25.28814,23.166645,25.2472Q23.105373,25.20626,23.04841,25.15952Q22.99145,25.11277,22.93934,25.06066Q22.88723,25.00855,22.84048,24.95159Q22.79374,24.894627,22.7528,24.833355Q22.71186,24.772084,22.67712,24.707095Q22.64238,24.642106,22.61418,24.574025Q22.58598,24.505944,22.56459,24.435427Q22.5432,24.36491,22.52882,24.292635Q22.51445,24.220361,22.50722,24.147026Q22.5,24.0736903,22.5,24Q22.5,23.9263097,22.50722,23.852974Q22.51445,23.779639,22.52882,23.707365Q22.5432,23.63509,22.56459,23.564573Q22.58598,23.494056,22.61418,23.425975Q22.64238,23.357894,22.67712,23.292905Q22.71186,23.227916,22.7528,23.166645Q22.79374,23.105373,22.84048,23.04841Q22.88723,22.99145,22.93934,22.93934Q22.99145,22.88723,23.04841,22.84048Q23.105373,22.79374,23.166645,22.7528Q23.227916,22.71186,23.292905,22.67712Q23.357894,22.64238,23.425975,22.61418Q23.494056,22.58598,23.564573,22.56459Q23.63509,22.5432,23.707365,22.52882Q23.779639,22.51445,23.852974,22.50722Q23.9263097,22.5,24,22.5Q24.0736903,22.5,24.147026,22.50722Q24.220361,22.51445,24.292635,22.52882Q24.36491,22.5432,24.435427,22.56459Q24.505944,22.58598,24.574025,22.61418Q24.642106,22.64238,24.707095,22.67712Q24.772084,22.71186,24.833355,22.7528Q24.894627,22.79374,24.95159,22.84048Q25.00855,22.88723,25.06066,22.93934Q25.11277,22.99145,25.15952,23.04841Q25.20626,23.105373,25.2472,23.166645Q25.28814,23.227916,25.32288,23.292905Q25.35762,23.357894,25.38582,23.425975Q25.41402,23.494056,25.43541,23.564573Q25.4568,23.63509,25.47118,23.707365Q25.48555,23.779639,25.49278,23.852974Q25.5,23.9263097,25.5,24Z" fill="#FFFFFF" fill-opacity="1"/></g><g style="mix-blend-mode:passthrough"><path d="M24.228256000000002,21.88771L34.51817,15.71376Q34.581360000000004,15.67585,34.64796,15.64431Q34.71456,15.61277,34.78393,15.58792Q34.853300000000004,15.56306,34.92478,15.54512Q34.99625,15.52718,35.0691,15.51634Q35.141999999999996,15.50549,35.2156,15.50184Q35.2892,15.49819,35.3628,15.50177Q35.4364,15.50536,35.509299999999996,15.51613Q35.5822,15.52691,35.6537,15.54479Q35.7252,15.56266,35.7946,15.58745Q35.864000000000004,15.61225,35.9306,15.64372Q35.997299999999996,15.6752,36.0605,15.713049999999999Q36.1237,15.75091,36.182900000000004,15.79478Q36.2421,15.83865,36.2967,15.88811Q36.3514,15.937570000000001,36.4009,15.99215Q36.4504,16.046731,36.4943,16.105899Q36.5382,16.165067,36.5762,16.228256000000002Q36.6141,16.291445,36.6456,16.358046Q36.677099999999996,16.424647,36.702,16.494018Q36.7269,16.563389,36.7448,16.634863Q36.7627,16.706337,36.7736,16.779224Q36.7844,16.852112,36.7881,16.9257119Q36.7917,16.999311761,36.7881,17.0729149Q36.7846,17.146518,36.7738,17.219416Q36.763,17.292313,36.7451,17.363803Q36.7273,17.435294,36.7025,17.504688Q36.6777,17.574082,36.6462,17.640711Q36.6147,17.707341,36.5769,17.770564Q36.539,17.833788,36.4951,17.892997Q36.4513,17.952205,36.4018,18.00683Q36.3523,18.06145,36.2978,18.11096Q36.2432,18.16048,36.184,18.2044Q36.1248,18.24833,36.0617,18.28624L25.771743999999998,24.46019Q25.708555,24.4981,25.641954,24.52964Q25.575353,24.56118,25.505982,24.58603Q25.436611,24.61089,25.365137,24.62883Q25.293663,24.64677,25.220776,24.65761Q25.147888,24.66846,25.0742881,24.67211Q25.000688239,24.67576,24.9270851,24.67217Q24.853482,24.668590000000002,24.780584,24.657809999999998Q24.707687,24.64704,24.636197,24.62916Q24.564706,24.61129,24.495312,24.5865Q24.425918,24.561700000000002,24.359289,24.53023Q24.292659,24.49875,24.229436,24.4609Q24.166212,24.42304,24.107003,24.379170000000002Q24.047795,24.3353,23.99317,24.28584Q23.93855,24.23638,23.88904,24.1818Q23.83952,24.12722,23.7956,24.06805Q23.75167,24.00888,23.71376,23.94569Q23.67585,23.8825,23.64431,23.8159Q23.61277,23.749299999999998,23.58792,23.67993Q23.56306,23.61056,23.54512,23.53909Q23.52718,23.46761,23.51634,23.39472Q23.50549,23.32184,23.50184,23.24824Q23.49819,23.17464,23.50177,23.10103Q23.50536,23.02743,23.51613,22.95453Q23.52691,22.88164,23.54479,22.81015Q23.56266,22.73866,23.58745,22.66926Q23.61225,22.59987,23.643720000000002,22.53324Q23.6752,22.46661,23.71305,22.40338Q23.75091,22.34016,23.79478,22.28095Q23.83865,22.22174,23.88811,22.16712Q23.93757,22.1125,23.99215,22.06298Q24.046731,22.013469999999998,24.105899,21.969549999999998Q24.165067,21.925620000000002,24.228256000000002,21.88771ZM26.5,23.173949999999998Q26.5,23.24764,26.49278,23.32097Q26.48555,23.39431,26.47118,23.46658Q26.4568,23.53886,26.43541,23.60938Q26.41402,23.67989,26.38582,23.74797Q26.35762,23.81605,26.32288,23.88104Q26.28814,23.94603,26.2472,24.0073Q26.20626,24.06858,26.15952,24.12554Q26.11277,24.1825,26.06066,24.23461Q26.00855,24.28672,25.95159,24.33346Q25.894627,24.380209999999998,25.833355,24.42115Q25.772084,24.46209,25.707095,24.49683Q25.642106,24.531570000000002,25.574025,24.55977Q25.505944,24.58797,25.435427,24.60936Q25.36491,24.63075,25.292635,24.64513Q25.220361,24.6595,25.147026,24.66673Q25.0736903,24.673949999999998,25,24.673949999999998Q24.9263097,24.673949999999998,24.852974,24.66673Q24.779639,24.6595,24.707365,24.64513Q24.63509,24.63075,24.564573,24.60936Q24.494056,24.58797,24.425975,24.55977Q24.357894,24.531570000000002,24.292905,24.49683Q24.227916,24.46209,24.166645,24.42115Q24.105373,24.380209999999998,24.04841,24.33346Q23.99145,24.28672,23.93934,24.23461Q23.88723,24.1825,23.84048,24.12554Q23.79374,24.06858,23.7528,24.0073Q23.71186,23.94603,23.67712,23.88104Q23.64238,23.81606,23.61418,23.74797Q23.58598,23.67989,23.56459,23.60938Q23.5432,23.53886,23.52882,23.46658Q23.51445,23.39431,23.50722,23.32098Q23.5,23.24764,23.5,23.173949999999998Q23.5,23.10026,23.50722,23.02692Q23.51445,22.95359,23.52882,22.88131Q23.5432,22.80904,23.56459,22.73852Q23.58598,22.668,23.61418,22.59992Q23.64238,22.53184,23.67712,22.46685Q23.71186,22.40187,23.7528,22.34059Q23.79374,22.27932,23.84048,22.222360000000002Q23.88723,22.165399999999998,23.93934,22.11329Q23.99145,22.06118,24.04841,22.01443Q24.105373,21.96768,24.166645,21.92674Q24.227916,21.88581,24.292905,21.85107Q24.357894,21.81633,24.425975,21.78813Q24.494056,21.75993,24.564573,21.73854Q24.63509,21.71715,24.707365,21.70277Q24.779639,21.6884,24.852974,21.68117Q24.9263097,21.673949999999998,25,21.673949999999998Q25.0736903,21.673949999999998,25.147026,21.68117Q25.220361,21.6884,25.292635,21.70277Q25.36491,21.71715,25.435427,21.73854Q25.505944,21.75993,25.574025,21.78813Q25.642106,21.81633,25.707095,21.85107Q25.772084,21.88581,25.833355,21.92674Q25.894627,21.96768,25.95159,22.01443Q26.00855,22.06118,26.06066,22.11329Q26.11277,22.165399999999998,26.15952,22.222360000000002Q26.20626,22.27932,26.2472,22.34059Q26.28814,22.40187,26.32288,22.46685Q26.35762,22.53184,26.38582,22.59992Q26.41402,22.668,26.43541,22.73852Q26.4568,22.80904,26.47118,22.88131Q26.48555,22.95359,26.49278,23.02692Q26.5,23.10026,26.5,23.173949999999998ZM36.7899,17Q36.7899,17.0736903,36.7827,17.147026Q36.7755,17.220361,36.7611,17.292635Q36.746700000000004,17.36491,36.725300000000004,17.435427Q36.703900000000004,17.505944,36.6757,17.574025Q36.6475,17.642106,36.6128,17.707095Q36.5781,17.772084,36.5371,17.833355Q36.4962,17.894627,36.4494,17.95159Q36.402699999999996,18.00855,36.3506,18.06066Q36.298500000000004,18.11277,36.2415,18.15952Q36.1845,18.20626,36.1233,18.2472Q36.062,18.28814,35.997,18.32288Q35.932,18.35762,35.8639,18.38582Q35.7959,18.41402,35.725300000000004,18.43541Q35.6548,18.4568,35.5826,18.47118Q35.5103,18.48555,35.4369,18.49278Q35.3636,18.5,35.2899,18.5Q35.2162,18.5,35.1429,18.49278Q35.0696,18.48555,34.99728,18.47118Q34.925,18.4568,34.85449,18.43541Q34.78397,18.41402,34.71589,18.38582Q34.64781,18.35762,34.58282,18.32288Q34.517830000000004,18.28814,34.456559999999996,18.2472Q34.39529,18.20626,34.338319999999996,18.15952Q34.28136,18.11277,34.22925,18.06066Q34.17715,18.00855,34.1304,17.95159Q34.08365,17.894627,34.04271,17.833355Q34.00177,17.772084,33.96703,17.707095Q33.93229,17.642106,33.90409,17.574025Q33.8759,17.505944,33.8545,17.435427Q33.83311,17.36491,33.81874,17.292635Q33.80436,17.220361,33.79714,17.147026Q33.78992,17.0736903,33.78992,17Q33.78992,16.9263097,33.79714,16.852974Q33.80436,16.779639,33.81874,16.707365Q33.83311,16.63509,33.8545,16.564573Q33.8759,16.494056,33.90409,16.425975Q33.93229,16.357894,33.96703,16.292905Q34.00177,16.227916,34.04271,16.166645Q34.08365,16.105373,34.1304,16.04841Q34.17715,15.99145,34.22925,15.93934Q34.28136,15.88723,34.338319999999996,15.84048Q34.39529,15.79374,34.456559999999996,15.7528Q34.517830000000004,15.71186,34.58282,15.67712Q34.64781,15.64238,34.71589,15.61418Q34.78397,15.58598,34.85449,15.564589999999999Q34.925,15.5432,34.99728,15.52882Q35.0696,15.51445,35.1429,15.50722Q35.2162,15.5,35.2899,15.5Q35.3636,15.5,35.4369,15.50722Q35.5103,15.51445,35.5826,15.52882Q35.6548,15.5432,35.725300000000004,15.564589999999999Q35.7959,15.58598,35.8639,15.61418Q35.932,15.64238,35.997,15.67712Q36.062,15.71186,36.1233,15.7528Q36.1845,15.79374,36.2415,15.84048Q36.298500000000004,15.88723,36.3506,15.93934Q36.402699999999996,15.99145,36.4494,16.04841Q36.4962,16.105373,36.5371,16.166645Q36.5781,16.227916,36.6128,16.292905Q36.6475,16.357894,36.6757,16.425975Q36.703900000000004,16.494056,36.725300000000004,16.564573Q36.746700000000004,16.63509,36.7611,16.707365Q36.7755,16.779639,36.7827,16.852974Q36.7899,16.9263097,36.7899,17Z" fill="#FFFFFF" fill-opacity="1"/></g><g style="mix-blend-mode:passthrough"><path d="M22.518172992187502,21.88771L32.8080869921875,15.71376Q32.871276992187504,15.67585,32.9378769921875,15.64431Q33.0044769921875,15.61277,33.0738469921875,15.58792Q33.143216992187504,15.56306,33.2146969921875,15.54512Q33.2861669921875,15.52718,33.3590169921875,15.51634Q33.431916992187496,15.50549,33.5055169921875,15.50184Q33.5791169921875,15.49819,33.6527169921875,15.50177Q33.7263169921875,15.50536,33.799216992187496,15.51613Q33.8721169921875,15.52691,33.9436169921875,15.54479Q34.0151169921875,15.56266,34.0845169921875,15.58745Q34.153916992187504,15.61225,34.2205169921875,15.64372Q34.287216992187496,15.6752,34.3504169921875,15.713049999999999Q34.4136169921875,15.75091,34.472816992187504,15.79478Q34.5320169921875,15.83865,34.5866169921875,15.88811Q34.6413169921875,15.937570000000001,34.6908169921875,15.99215Q34.7403169921875,16.046731,34.7842169921875,16.105899Q34.8281169921875,16.165067,34.8661169921875,16.228256000000002Q34.9040169921875,16.291445,34.9355169921875,16.358046Q34.967016992187496,16.424647,34.9919169921875,16.494018Q35.0168169921875,16.563389,35.0347169921875,16.634863Q35.0526169921875,16.706337,35.0635169921875,16.779224Q35.0743169921875,16.852112,35.0780169921875,16.9257119Q35.0816169921875,16.999311761,35.0780169921875,17.0729149Q35.0745169921875,17.146518,35.0637169921875,17.219416Q35.0529169921875,17.292313,35.0350169921875,17.363803Q35.0172169921875,17.435294,34.9924169921875,17.504688Q34.9676169921875,17.574082,34.9361169921875,17.640711Q34.9046169921875,17.707341,34.8668169921875,17.770564Q34.8289169921875,17.833788,34.7850169921875,17.892997Q34.7412169921875,17.952205,34.6917169921875,18.00683Q34.6422169921875,18.06145,34.5877169921875,18.11096Q34.5331169921875,18.16048,34.4739169921875,18.2044Q34.4147169921875,18.24833,34.3516169921875,18.28624L24.061660992187498,24.46019Q23.9984719921875,24.4981,23.9318709921875,24.52964Q23.8652699921875,24.56118,23.7958989921875,24.58603Q23.7265279921875,24.61089,23.6550539921875,24.62883Q23.5835799921875,24.64677,23.5106929921875,24.65761Q23.4378049921875,24.66846,23.3642050921875,24.67211Q23.2906052311875,24.67576,23.2170020921875,24.67217Q23.1433989921875,24.668590000000002,23.0705009921875,24.657809999999998Q22.9976039921875,24.64704,22.9261139921875,24.62916Q22.8546229921875,24.61129,22.7852289921875,24.5865Q22.7158349921875,24.561700000000002,22.6492059921875,24.53023Q22.5825759921875,24.49875,22.5193529921875,24.4609Q22.4561289921875,24.42304,22.3969199921875,24.379170000000002Q22.3377119921875,24.3353,22.2830869921875,24.28584Q22.2284669921875,24.23638,22.1789569921875,24.1818Q22.1294369921875,24.12722,22.0855169921875,24.06805Q22.0415869921875,24.00888,22.0036769921875,23.94569Q21.9657669921875,23.8825,21.9342269921875,23.8159Q21.9026869921875,23.749299999999998,21.8778369921875,23.67993Q21.8529769921875,23.61056,21.8350369921875,23.53909Q21.8170969921875,23.46761,21.8062569921875,23.39472Q21.7954069921875,23.32184,21.7917569921875,23.24824Q21.7881069921875,23.17464,21.7916869921875,23.10103Q21.7952769921875,23.02743,21.8060469921875,22.95453Q21.8168269921875,22.88164,21.8347069921875,22.81015Q21.8525769921875,22.73866,21.8773669921875,22.66926Q21.9021669921875,22.59987,21.933636992187502,22.53324Q21.9651169921875,22.46661,22.0029669921875,22.40338Q22.0408269921875,22.34016,22.0846969921875,22.28095Q22.1285669921875,22.22174,22.1780269921875,22.16712Q22.2274869921875,22.1125,22.2820669921875,22.06298Q22.3366479921875,22.013469999999998,22.3958159921875,21.969549999999998Q22.4549839921875,21.925620000000002,22.518172992187502,21.88771ZM24.7899169921875,23.173949999999998Q24.7899169921875,23.24764,24.7826969921875,23.32097Q24.7754669921875,23.39431,24.7610969921875,23.46658Q24.7467169921875,23.53886,24.7253269921875,23.60938Q24.7039369921875,23.67989,24.6757369921875,23.74797Q24.6475369921875,23.81605,24.6127969921875,23.88104Q24.5780569921875,23.94603,24.5371169921875,24.0073Q24.4961769921875,24.06858,24.4494369921875,24.12554Q24.4026869921875,24.1825,24.3505769921875,24.23461Q24.2984669921875,24.28672,24.2415069921875,24.33346Q24.1845439921875,24.380209999999998,24.1232719921875,24.42115Q24.0620009921875,24.46209,23.9970119921875,24.49683Q23.9320229921875,24.531570000000002,23.8639419921875,24.55977Q23.7958609921875,24.58797,23.7253439921875,24.60936Q23.6548269921875,24.63075,23.5825519921875,24.64513Q23.5102779921875,24.6595,23.4369429921875,24.66673Q23.3636072921875,24.673949999999998,23.2899169921875,24.673949999999998Q23.2162266921875,24.673949999999998,23.1428909921875,24.66673Q23.0695559921875,24.6595,22.9972819921875,24.64513Q22.9250069921875,24.63075,22.8544899921875,24.60936Q22.7839729921875,24.58797,22.7158919921875,24.55977Q22.6478109921875,24.531570000000002,22.5828219921875,24.49683Q22.5178329921875,24.46209,22.4565619921875,24.42115Q22.3952899921875,24.380209999999998,22.3383269921875,24.33346Q22.2813669921875,24.28672,22.2292569921875,24.23461Q22.1771469921875,24.1825,22.1303969921875,24.12554Q22.0836569921875,24.06858,22.0427169921875,24.0073Q22.0017769921875,23.94603,21.9670369921875,23.88104Q21.9322969921875,23.81606,21.9040969921875,23.74797Q21.8758969921875,23.67989,21.8545069921875,23.60938Q21.8331169921875,23.53886,21.8187369921875,23.46658Q21.8043669921875,23.39431,21.7971369921875,23.32098Q21.7899169921875,23.24764,21.7899169921875,23.173949999999998Q21.7899169921875,23.10026,21.7971369921875,23.02692Q21.8043669921875,22.95359,21.8187369921875,22.88131Q21.8331169921875,22.80904,21.8545069921875,22.73852Q21.8758969921875,22.668,21.9040969921875,22.59992Q21.9322969921875,22.53184,21.9670369921875,22.46685Q22.0017769921875,22.40187,22.0427169921875,22.34059Q22.0836569921875,22.27932,22.1303969921875,22.222360000000002Q22.1771469921875,22.165399999999998,22.2292569921875,22.11329Q22.2813669921875,22.06118,22.3383269921875,22.01443Q22.3952899921875,21.96768,22.4565619921875,21.92674Q22.5178329921875,21.88581,22.5828219921875,21.85107Q22.6478109921875,21.81633,22.7158919921875,21.78813Q22.7839729921875,21.75993,22.8544899921875,21.73854Q22.9250069921875,21.71715,22.9972819921875,21.70277Q23.0695559921875,21.6884,23.1428909921875,21.68117Q23.2162266921875,21.673949999999998,23.2899169921875,21.673949999999998Q23.3636072921875,21.673949999999998,23.4369429921875,21.68117Q23.5102779921875,21.6884,23.5825519921875,21.70277Q23.6548269921875,21.71715,23.7253439921875,21.73854Q23.7958609921875,21.75993,23.8639419921875,21.78813Q23.9320229921875,21.81633,23.9970119921875,21.85107Q24.0620009921875,21.88581,24.1232719921875,21.92674Q24.1845439921875,21.96768,24.2415069921875,22.01443Q24.2984669921875,22.06118,24.3505769921875,22.11329Q24.4026869921875,22.165399999999998,24.4494369921875,22.222360000000002Q24.4961769921875,22.27932,24.5371169921875,22.34059Q24.5780569921875,22.40187,24.6127969921875,22.46685Q24.6475369921875,22.53184,24.6757369921875,22.59992Q24.7039369921875,22.668,24.7253269921875,22.73852Q24.7467169921875,22.80904,24.7610969921875,22.88131Q24.7754669921875,22.95359,24.7826969921875,23.02692Q24.7899169921875,23.10026,24.7899169921875,23.173949999999998ZM35.0798169921875,17Q35.0798169921875,17.0736903,35.0726169921875,17.147026Q35.0654169921875,17.220361,35.0510169921875,17.292635Q35.036616992187504,17.36491,35.015216992187504,17.435427Q34.993816992187504,17.505944,34.9656169921875,17.574025Q34.9374169921875,17.642106,34.9027169921875,17.707095Q34.8680169921875,17.772084,34.8270169921875,17.833355Q34.7861169921875,17.894627,34.7393169921875,17.95159Q34.692616992187496,18.00855,34.6405169921875,18.06066Q34.588416992187504,18.11277,34.5314169921875,18.15952Q34.4744169921875,18.20626,34.4132169921875,18.2472Q34.3519169921875,18.28814,34.2869169921875,18.32288Q34.2219169921875,18.35762,34.1538169921875,18.38582Q34.0858169921875,18.41402,34.015216992187504,18.43541Q33.9447169921875,18.4568,33.8725169921875,18.47118Q33.8002169921875,18.48555,33.7268169921875,18.49278Q33.6535169921875,18.5,33.5798169921875,18.5Q33.5061169921875,18.5,33.4328169921875,18.49278Q33.3595169921875,18.48555,33.2871969921875,18.47118Q33.2149169921875,18.4568,33.1444069921875,18.43541Q33.0738869921875,18.41402,33.0058069921875,18.38582Q32.9377269921875,18.35762,32.8727369921875,18.32288Q32.807746992187504,18.28814,32.746476992187496,18.2472Q32.6852069921875,18.20626,32.628236992187496,18.15952Q32.5712769921875,18.11277,32.5191669921875,18.06066Q32.4670669921875,18.00855,32.4203169921875,17.95159Q32.3735669921875,17.894627,32.3326269921875,17.833355Q32.2916869921875,17.772084,32.2569469921875,17.707095Q32.2222069921875,17.642106,32.1940069921875,17.574025Q32.1658169921875,17.505944,32.1444169921875,17.435427Q32.1230269921875,17.36491,32.1086569921875,17.292635Q32.0942769921875,17.220361,32.0870569921875,17.147026Q32.0798369921875,17.0736903,32.0798369921875,17Q32.0798369921875,16.9263097,32.0870569921875,16.852974Q32.0942769921875,16.779639,32.1086569921875,16.707365Q32.1230269921875,16.63509,32.1444169921875,16.564573Q32.1658169921875,16.494056,32.1940069921875,16.425975Q32.2222069921875,16.357894,32.2569469921875,16.292905Q32.2916869921875,16.227916,32.3326269921875,16.166645Q32.3735669921875,16.105373,32.4203169921875,16.04841Q32.4670669921875,15.99145,32.5191669921875,15.93934Q32.5712769921875,15.88723,32.628236992187496,15.84048Q32.6852069921875,15.79374,32.746476992187496,15.7528Q32.807746992187504,15.71186,32.8727369921875,15.67712Q32.9377269921875,15.64238,33.0058069921875,15.61418Q33.0738869921875,15.58598,33.1444069921875,15.564589999999999Q33.2149169921875,15.5432,33.2871969921875,15.52882Q33.3595169921875,15.51445,33.4328169921875,15.50722Q33.5061169921875,15.5,33.5798169921875,15.5Q33.6535169921875,15.5,33.7268169921875,15.50722Q33.8002169921875,15.51445,33.8725169921875,15.52882Q33.9447169921875,15.5432,34.015216992187504,15.564589999999999Q34.0858169921875,15.58598,34.1538169921875,15.61418Q34.2219169921875,15.64238,34.2869169921875,15.67712Q34.3519169921875,15.71186,34.4132169921875,15.7528Q34.4744169921875,15.79374,34.5314169921875,15.84048Q34.588416992187504,15.88723,34.6405169921875,15.93934Q34.692616992187496,15.99145,34.7393169921875,16.04841Q34.7861169921875,16.105373,34.8270169921875,16.166645Q34.8680169921875,16.227916,34.9027169921875,16.292905Q34.9374169921875,16.357894,34.9656169921875,16.425975Q34.993816992187504,16.494056,35.015216992187504,16.564573Q35.036616992187504,16.63509,35.0510169921875,16.707365Q35.0654169921875,16.779639,35.0726169921875,16.852974Q35.0798169921875,16.9263097,35.0798169921875,17Z" transform="matrix(-1,0,0,1,46.579833984375,0)" fill="#FFFFFF" fill-opacity="1"/></g></g></g></svg>