<svg xmlns="http://www.w3.org/2000/svg" xmlns:xlink="http://www.w3.org/1999/xlink" fill="none" version="1.1" width="48" height="48" viewBox="0 0 48 48"><defs><linearGradient x1="0.8721974492073059" y1="0" x2="0" y2="1" id="master_svg0_801_4889"><stop offset="0%" stop-color="#71A7FF" stop-opacity="1"/><stop offset="100%" stop-color="#007AFF" stop-opacity="1"/></linearGradient></defs><g style="mix-blend-mode:passthrough"><g><g style="mix-blend-mode:passthrough"></g><g style="mix-blend-mode:passthrough"><g><g style="mix-blend-mode:passthrough"><path d="M25.8748,1.805583C24.8211,0.731472,23.1218,0.731472,22.0681,1.805583L0.274695,24.1637C0.0124052,24.4132,-0.0715348,24.8039,0.0641269,25.1438C0.199789,25.4836,0.526527,25.7011,0.883768,25.6894L2.44452,25.6894C3.26445,25.6894,3.92913,26.3726,3.92913,27.2152L3.92913,43.8028C3.92913,45.5638,5.31816,46.9913,7.0316,46.9913L16.5484,46.9913C17.3712,46.9913,18.1603,46.6554,18.7421,46.0574C19.324,45.4595,19.6508,44.6485,19.6508,43.8028L19.6508,37.8368C19.6508,37.1637,20.1761,36.6151,20.8309,36.6044L26.9216,36.6044C27.5839,36.6044,28.1208,37.1562,28.1208,37.8368L28.1208,43.8028C28.1208,44.6485,28.4476,45.4595,29.0295,46.0574C29.6113,46.6554,30.4004,46.9913,31.2232,46.9913L40.74,46.9913C41.5999,47.057,42.4473,46.7496,43.0765,46.1438C43.7058,45.5379,44.0595,44.689,44.0518,43.8028L44.0518,27.2152C44.0518,26.3726,44.7165,25.6894,45.5364,25.6894L47.1162,25.6894C47.4735,25.7011,47.8002,25.4836,47.9359,25.1438C48.0715,24.8039,47.9876,24.4132,47.7253,24.1637L25.8748,1.805583Z" fill="url(#master_svg0_801_4889)" fill-opacity="1"/></g></g></g></g></g></svg>