<svg xmlns="http://www.w3.org/2000/svg" xmlns:xlink="http://www.w3.org/1999/xlink" fill="none" version="1.1" width="48" height="48" viewBox="0 0 48 48"><g style="mix-blend-mode:passthrough"><g><g style="mix-blend-mode:passthrough"></g><g style="mix-blend-mode:passthrough"><g><g style="mix-blend-mode:passthrough"><path d="M11,2C6.02944,2,2,6.02944,2,11L2,13C2,17.970599999999997,6.02944,22,11,22L19,22C20.6569,22,22,20.6569,22,19L22,11C22,6.02944,17.970599999999997,2,13,2L11,2ZM35,2C30.0294,2,26,6.02944,26,11L26,19C26,20.6569,27.3431,22,29,22L37,22C41.9706,22,46,17.970599999999997,46,13L46,11C46,6.02944,41.9706,2,37,2L35,2ZM5,13L5,11Q5,8.51472,6.75736,6.75736Q8.51472,5,11,5L13,5Q15.4853,5,17.2426,6.75736Q19,8.51472,19,11L19,19L11,19Q8.51472,19,6.75736,17.2426Q5,15.4853,5,13ZM29,19L29,11Q29,8.51472,30.7574,6.75736Q32.514700000000005,5,35,5L37,5Q39.4853,5,41.2426,6.75736Q43,8.51472,43,11L43,13Q43,15.4853,41.2426,17.2426Q39.4853,19,37,19L29,19ZM11,26C6.02944,26,2,30.0294,2,35L2,37C2,41.9706,6.02944,46,11,46L13,46C17.970599999999997,46,22,41.9706,22,37L22,29C22,27.3431,20.6569,26,19,26L11,26ZM29,26C27.3431,26,26,27.3431,26,29L26,37C26,41.9706,30.0294,46,35,46L37,46C41.9706,46,46,41.9706,46,37L46,35C46,30.0294,41.9706,26,37,26L29,26ZM5,37L5,35Q5,32.514700000000005,6.75736,30.7574Q8.51472,29,11,29L19,29L19,37Q19,39.4853,17.2426,41.2426Q15.4853,43,13,43L11,43Q8.51472,43,6.75736,41.2426Q5,39.4853,5,37ZM29,37L29,29L37,29Q39.4853,29,41.2426,30.7574Q43,32.514700000000005,43,35L43,37Q43,39.4853,41.2426,41.2426Q39.4853,43,37,43L35,43Q32.514700000000005,43,30.7574,41.2426Q29,39.4853,29,37Z" fill-rule="evenodd" fill="#000000" fill-opacity="1"/></g></g></g></g></g></svg>