<svg xmlns="http://www.w3.org/2000/svg" xmlns:xlink="http://www.w3.org/1999/xlink" fill="none" version="1.1" width="48" height="48" viewBox="0 0 48 48"><g style="mix-blend-mode:passthrough"><g><g style="mix-blend-mode:passthrough"></g><g style="mix-blend-mode:passthrough"><g><g style="mix-blend-mode:passthrough"><path d="M46.2845,22.6894L46.4082,22.816L47.7253,24.1637C47.9876,24.4132,48.0715,24.8039,47.9359,25.1438C47.8002,25.4836,47.4735,25.7011,47.1162,25.6894L45.5364,25.6894C45.4239,25.6894,45.3142,25.7023,45.2088,25.7267C45.1687,25.736,45.1291,25.747,45.0902,25.7596C44.4883,25.9543,44.0518,26.5324,44.0518,27.2152L44.0518,43.8028C44.0595,44.689,43.7058,45.5379,43.0765,46.1438C42.4473,46.7496,41.5999,47.057,40.74,46.9913L31.2232,46.9913C30.4004,46.9913,29.6113,46.6554,29.0295,46.0574C28.4476,45.4595,28.1208,44.6485,28.1208,43.8028L28.1208,37.8368C28.1208,37.1562,27.5839,36.6044,26.9216,36.6044L20.8309,36.6044C20.1761,36.6151,19.6508,37.1637,19.6508,37.8368L19.6508,43.8028C19.6508,44.6485,19.324,45.4595,18.7421,46.0574C18.1603,46.6554,17.3712,46.9913,16.5484,46.9913L7.0316,46.9913C5.31816,46.9913,3.92913,45.5638,3.92913,43.8028L3.92913,27.2152C3.92913,26.5374,3.49914,25.9629,2.90422,25.764C2.87948,25.7557,2.85446,25.7481,2.82917,25.7412C2.81593,25.7375,2.80261,25.7341,2.78922,25.7308C2.6786,25.7038,2.56319,25.6894,2.44452,25.6894L0.883768,25.6894C0.526527,25.7011,0.199789,25.4836,0.0641269,25.1438C-0.0715348,24.8039,0.0124052,24.4132,0.274695,24.1637L1.58922,22.8151L1.71171,22.6894L22.0681,1.805583C23.1218,0.731472,24.8211,0.731472,25.8748,1.805583L46.2845,22.6894ZM23.9718,4.15053L42.9156,23.5345Q42.6136,23.7594,42.3366,24.0442Q41.0518,25.3645,41.0518,27.2152L41.0519,43.8289Q41.0528,43.9278,40.9959,43.9826Q40.9771,44.0006,40.9685,44L40.8544,43.9913L31.2232,43.9913Q31.2049,43.9913,31.1796,43.9653Q31.1208,43.9048,31.1208,43.8028L31.1208,37.8368Q31.1208,36.1076,29.9197,34.8732Q28.6851,33.6044,26.9216,33.6044L20.782,33.6048Q19.039,33.6333,17.8285,34.8973Q16.6506,36.1274,16.6508,37.8368L16.6508,43.8028Q16.6508,43.9048,16.592,43.9653Q16.5667,43.9913,16.5484,43.9913L7.0316,43.9913Q6.92913,43.9913,6.92913,43.8028L6.92913,27.2152Q6.92913,25.3645,5.64441,24.0442Q5.37052,23.7627,5.07231,23.5397L23.9718,4.15053Z" fill-rule="evenodd" fill="#000000" fill-opacity="1"/></g></g></g></g></g></svg>