<?xml version="1.0" encoding="UTF-8"?>
<svg width="40px" height="40px" viewBox="0 0 40 40" version="1.1" xmlns="http://www.w3.org/2000/svg" xmlns:xlink="http://www.w3.org/1999/xlink">
    <title>编组</title>
    <g id="我的" stroke="none" stroke-width="1" fill="none" fill-rule="evenodd">
        <g id="我的备份-2" transform="translate(-568.000000, -1468.000000)" stroke="#000000" stroke-width="2.18181818">
            <g id="标签拦" transform="translate(0.000000, 1452.000000)">
                <g id="编组" transform="translate(568.000000, 16.000000)">
                    <path d="M9.09090909,1.09090909 C11.3000481,1.09090909 13.3000481,1.98633959 14.7477633,3.43405484 C16.1954786,4.88177009 17.0909091,6.88177009 17.0909091,9.09090909 L17.0909091,9.09090909 L17.0909091,14.9090909 C17.0909091,15.5115834 16.8467008,16.0570379 16.4518693,16.4518693 C16.0570379,16.8467008 15.5115834,17.0909091 14.9090909,17.0909091 L14.9090909,17.0909091 L9.09090909,17.0909091 C6.88177009,17.0909091 4.88177009,16.1954786 3.43405484,14.7477633 C1.98633959,13.3000481 1.09090909,11.3000481 1.09090909,9.09090909 C1.09090909,6.88177009 1.98633959,4.88177009 3.43405484,3.43405484 C4.88177009,1.98633959 6.88177009,1.09090909 9.09090909,1.09090909 Z" id="矩形"></path>
                    <path d="M14.9090909,22.9090909 C15.5115834,22.9090909 16.0570379,23.1532992 16.4518693,23.5481307 C16.8467008,23.9429621 17.0909091,24.4884166 17.0909091,25.0909091 L17.0909091,25.0909091 L17.0909091,30.9090909 C17.0909091,33.1182299 16.1954786,35.1182299 14.7477633,36.5659452 C13.3000481,38.0136604 11.3000481,38.9090909 9.09090909,38.9090909 C6.88177009,38.9090909 4.88177009,38.0136604 3.43405484,36.5659452 C1.98633959,35.1182299 1.09090909,33.1182299 1.09090909,30.9090909 C1.09090909,28.6999519 1.98633959,26.6999519 3.43405484,25.2522367 C4.88177009,23.8045214 6.88177009,22.9090909 9.09090909,22.9090909 L9.09090909,22.9090909 Z" id="矩形备份-7"></path>
                    <path d="M30.9090909,1.09090909 C33.1182299,1.09090909 35.1182299,1.98633959 36.5659452,3.43405484 C38.0136604,4.88177009 38.9090909,6.88177009 38.9090909,9.09090909 C38.9090909,11.3000481 38.0136604,13.3000481 36.5659452,14.7477633 C35.1182299,16.1954786 33.1182299,17.0909091 30.9090909,17.0909091 L30.9090909,17.0909091 L25.0909091,17.0909091 C24.4884166,17.0909091 23.9429621,16.8467008 23.5481307,16.4518693 C23.1532992,16.0570379 22.9090909,15.5115834 22.9090909,14.9090909 L22.9090909,14.9090909 L22.9090909,9.09090909 C22.9090909,6.88177009 23.8045214,4.88177009 25.2522367,3.43405484 C26.6999519,1.98633959 28.6999519,1.09090909 30.9090909,1.09090909 Z" id="矩形备份-6"></path>
                    <path d="M30.9090909,22.9090909 C33.1182299,22.9090909 35.1182299,23.8045214 36.5659452,25.2522367 C38.0136604,26.6999519 38.9090909,28.6999519 38.9090909,30.9090909 C38.9090909,33.1182299 38.0136604,35.1182299 36.5659452,36.5659452 C35.1182299,38.0136604 33.1182299,38.9090909 30.9090909,38.9090909 C28.6999519,38.9090909 26.6999519,38.0136604 25.2522367,36.5659452 C23.8045214,35.1182299 22.9090909,33.1182299 22.9090909,30.9090909 L22.9090909,30.9090909 L22.9090909,25.0909091 C22.9090909,24.4884166 23.1532992,23.9429621 23.5481307,23.5481307 C23.9429621,23.1532992 24.4884166,22.9090909 25.0909091,22.9090909 L25.0909091,22.9090909 Z" id="矩形备份-8"></path>
                </g>
            </g>
        </g>
    </g>
</svg>