<svg xmlns="http://www.w3.org/2000/svg" xmlns:xlink="http://www.w3.org/1999/xlink" fill="none" version="1.1" width="48" height="48" viewBox="0 0 48 48"><g style="mix-blend-mode:passthrough"><g><g style="mix-blend-mode:passthrough"></g><g style="mix-blend-mode:passthrough"><path d="M2,43L2,42.180099999999996C2,32.13949,10.13949,24,20.1801,24L27.9286,24C37.9091,24,46,32.052260000000004,46,42.0328L46,43.0137C46,44.670500000000004,44.6569,46,43,46L5,46C3.34315,46,2,44.6569,2,43ZM20.1801,27Q17.0897,27,14.2722,28.1917Q11.54858,29.3437,9.44614,31.44614Q7.3437,33.54858,6.19169,36.2722Q5,39.0897,5,42.180099999999996L5,43L43,43L43,42.0328Q43,38.9659,41.8175,36.175Q40.675,33.47817,38.5888,31.39816Q36.5028,29.31825,33.798100000000005,28.17878Q31,27,27.9286,27L20.1801,27Z" fill-rule="evenodd" fill="#000000" fill-opacity="1"/></g><g style="mix-blend-mode:passthrough"><ellipse cx="24" cy="16" rx="14" ry="14" fill="#FFFFFF" fill-opacity="1"/><ellipse cx="24" cy="16" rx="12.5" ry="12.5" fill-opacity="0" stroke-opacity="1" stroke="#000000" stroke-width="3" fill="none" stroke-dasharray=""/></g></g></g></svg>