<svg xmlns="http://www.w3.org/2000/svg" xmlns:xlink="http://www.w3.org/1999/xlink" fill="none" version="1.1" width="48" height="48" viewBox="0 0 48 48"><defs><linearGradient x1="1" y1="0" x2="0" y2="1" id="master_svg0_801_6654"><stop offset="0%" stop-color="#71A7FF" stop-opacity="1"/><stop offset="100%" stop-color="#3A84FF" stop-opacity="1"/></linearGradient></defs><g style="mix-blend-mode:passthrough"><g><g style="mix-blend-mode:passthrough"></g><g style="mix-blend-mode:passthrough"><path d="M34.5219,25.2352Q34.938,24.7612,35.3098,24.2516Q35.6815,23.7421,36.006,23.2012Q36.3304,22.6603,36.6049,22.0924Q36.8794,21.5245,37.1017,20.9342Q37.324,20.344,37.4923,19.7361Q37.6606,19.1282,37.7736,18.5077Q37.8866,17.8871,37.9433,17.2589Q38,16.630699999999997,38,16Q38,15.6563,37.9831,15.3131Q37.9663,14.9698,37.9326,14.6278Q37.8989,14.2857,37.8485,13.9458Q37.798,13.6058,37.731,13.2687Q37.6639,12.9317,37.5804,12.5983Q37.4969,12.2649,37.3972,11.93602Q37.2974,11.60713,37.1816,11.28354Q37.0658,10.95995,36.9343,10.64243Q36.8028,10.32491,36.6558,10.01423Q36.5089,9.70354,36.3469,9.40045Q36.1849,9.097349999999999,36.0082,8.80256Q35.8315,8.50778,35.6406,8.22202Q35.4496,7.93626,35.2449,7.66021Q35.0402,7.38416,34.8221,7.11849Q34.6041,6.85283,34.3733,6.59817Q34.1425,6.34352,33.8995,6.1005Q33.6565,5.85749,33.4018,5.62668Q33.1472,5.39588,32.8815,5.177849999999999Q32.6158,4.959820000000001,32.3398,4.75509Q32.0637,4.5503599999999995,31.778,4.35943Q31.4922,4.16849,31.1974,3.9918Q30.9026,3.81511,30.5995,3.6531000000000002Q30.2964,3.49109,29.9858,3.34415Q29.6751,3.19721,29.3576,3.06569Q29.04,2.934165,28.7165,2.818383Q28.3929,2.7026,28.064,2.602835Q27.7351,2.50307,27.4017,2.419562Q27.0683,2.336055,26.7313,2.269006Q26.3942,2.201957,26.0542,2.151529Q25.7143,2.1011,25.3722,2.0674138Q25.0302,2.0337272,24.6869,2.0168636Q24.3437,2,24,2Q23.6563,2,23.3131,2.0168636Q22.9698,2.0337272,22.6278,2.0674138Q22.2857,2.1011,21.9458,2.151529Q21.6058,2.201957,21.2687,2.269006Q20.9317,2.336055,20.5983,2.419562Q20.2649,2.50307,19.936,2.602835Q19.6071,2.7026,19.2835,2.818383Q18.9599,2.934165,18.6424,3.06569Q18.3249,3.19721,18.0142,3.34415Q17.7035,3.49109,17.400399999999998,3.6531000000000002Q17.0973,3.81511,16.802599999999998,3.9918Q16.5078,4.16849,16.222,4.35943Q15.9363,4.5503599999999995,15.6602,4.75509Q15.3842,4.959820000000001,15.1185,5.177849999999999Q14.8528,5.39588,14.5982,5.62668Q14.3435,5.85749,14.1005,6.1005Q13.8575,6.34352,13.6267,6.59817Q13.3959,6.85282,13.1779,7.11849Q12.9598,7.38416,12.7551,7.66021Q12.5504,7.93626,12.3594,8.22202Q12.1685,8.50778,11.9918,8.80256Q11.81511,9.097349999999999,11.6531,9.40045Q11.49109,9.70354,11.34415,10.01423Q11.19721,10.32491,11.06569,10.64243Q10.93416,10.95995,10.81838,11.28354Q10.7026,11.60713,10.60283,11.93602Q10.50307,12.2649,10.41956,12.5983Q10.33605,12.9317,10.269,13.2687Q10.20196,13.6058,10.15153,13.9458Q10.1011,14.2857,10.06741,14.6278Q10.03373,14.9698,10.01686,15.3131Q10,15.6563,10,16Q10,16.633200000000002,10.05716,17.2639Q10.11433,17.8945,10.22819,18.5174Q10.34205,19.1403,10.51168,19.7504Q10.68131,20.3604,10.90532,20.9527Q11.12933,21.545,11.40589,22.1146Q11.68245,22.6842,12.0093,23.2266Q12.3362,23.7689,12.7106,24.2795Q13.0851,24.7901,13.5042,25.2649C6.76664,27.9261,2,34.4964,2,42.1801L2,43C2,44.6569,3.34315,46,5,46L43,46C44.6569,46,46,44.6705,46,43.0137L46,42.0328C46,34.3789,41.2417,27.8591,34.5219,25.2352Z" fill-rule="evenodd" fill="url(#master_svg0_801_6654)" fill-opacity="1"/></g></g></g></svg>