<svg xmlns="http://www.w3.org/2000/svg" xmlns:xlink="http://www.w3.org/1999/xlink" fill="none" version="1.1" width="48" height="48" viewBox="0 0 48 48"><defs><linearGradient x1="1" y1="0" x2="0" y2="1" id="master_svg0_801_6056"><stop offset="0%" stop-color="#71A7FF" stop-opacity="1"/><stop offset="100%" stop-color="#007AFF" stop-opacity="1"/></linearGradient></defs><g style="mix-blend-mode:passthrough"><g><g style="mix-blend-mode:passthrough"></g><g style="mix-blend-mode:passthrough"><g><g style="mix-blend-mode:passthrough"><path d="M2,11C2,6.02944,6.02944,2,11,2L13,2C17.970599999999997,2,22,6.02944,22,11L22,19C22,20.6569,20.6569,22,19,22L11,22C6.02944,22,2,17.970599999999997,2,13L2,11ZM26,11C26,6.02944,30.0294,2,35,2L37,2C41.9706,2,46,6.02944,46,11L46,13C46,17.970599999999997,41.9706,22,37,22L29,22C27.3431,22,26,20.6569,26,19L26,11ZM2,35C2,30.0294,6.02944,26,11,26L19,26C20.6569,26,22,27.3431,22,29L22,37C22,41.9706,17.970599999999997,46,13,46L11,46C6.02944,46,2,41.9706,2,37L2,35ZM26,29C26,27.3431,27.3431,26,29,26L37,26C41.9706,26,46,30.0294,46,35L46,37C46,41.9706,41.9706,46,37,46L35,46C30.0294,46,26,41.9706,26,37L26,29Z" fill-rule="evenodd" fill="url(#master_svg0_801_6056)" fill-opacity="1"/></g></g></g></g></g></svg>